<?xml version="1.0" ?><svg id="Layer_1" style="enable-background:new 0 0 50 50;" version="1.1" viewBox="0 0 50 50" xml:space="preserve" xmlns="http://www.w3.org/2000/svg" xmlns:xlink="http://www.w3.org/1999/xlink"><g id="Layer_1_1_"><path d="M1,39h10v9.414L20.414,39H49V1H1V39z M3,3h44v34H19.586L13,43.586V37H3V3z"/><path d="M17,20c0-2.206-1.794-4-4-4s-4,1.794-4,4s1.794,4,4,4S17,22.206,17,20z M11,20c0-1.103,0.897-2,2-2s2,0.897,2,2   s-0.897,2-2,2S11,21.103,11,20z"/><path d="M25,24c2.206,0,4-1.794,4-4s-1.794-4-4-4s-4,1.794-4,4S22.794,24,25,24z M25,18c1.103,0,2,0.897,2,2s-0.897,2-2,2   s-2-0.897-2-2S23.897,18,25,18z"/><path d="M37,24c2.206,0,4-1.794,4-4s-1.794-4-4-4s-4,1.794-4,4S34.794,24,37,24z M37,18c1.103,0,2,0.897,2,2s-0.897,2-2,2   s-2-0.897-2-2S35.897,18,37,18z"/></g></svg>